<svg width="14" height="14" viewBox="0 0 14 14" fill="none" xmlns="http://www.w3.org/2000/svg">
<path d="M7.82505 10.2997L7.0001 11.1247C6.45312 11.6717 5.71125 11.979 4.9377 11.979C4.16415 11.979 3.42229 11.6717 2.87531 11.1247C2.32833 10.5777 2.02103 9.83583 2.02104 9.06229C2.02104 8.28874 2.32833 7.54687 2.87531 6.99989L3.70027 6.17493" stroke="currentColor" stroke-width="1.5" stroke-linecap="round" stroke-linejoin="round"/>
<path d="M6.17505 3.70016L7.00001 2.87521C7.54699 2.32823 8.28885 2.02093 9.0624 2.02093C9.83595 2.02093 10.5778 2.32823 11.1248 2.87521C11.6718 3.42219 11.9791 4.16405 11.9791 4.9376C11.9791 5.71115 11.6718 6.45302 11.1248 7L10.2998 7.82495" stroke="currentColor" stroke-width="1.5" stroke-linecap="round" stroke-linejoin="round"/>
<path d="M5.35019 8.64981L8.65002 5.34998" stroke="currentColor" stroke-width="1.5" stroke-linecap="round" stroke-linejoin="round"/>
</svg>
